                  <svg
                    width="32"
                    height="32"
                    viewBox="0 0 24 24"
                    fill="none"
                    xmlns="http://www.w3.org/2000/svg"
                    className="text-white"
                  >
                    <path
                      d="M6.44 18.77h11.66c.43 0 .68-.47.43-.83l-2.5-3.66c-.2-.3-.63-.3-.83 0l-1.76 2.58c-.2.3-.63.3-.83 0L10.17 13c-.2-.3-.63-.3-.83 0l-3.44 5.01c-.2.36.05.76.54.76zM6.44 13h11.66c.43 0 .68-.47.43-.83l-2.5-3.66c-.2-.3-.63-.3-.83 0l-1.76 2.58c-.2.3-.63.3-.83 0L10.17 7.2c-.2-.3-.63-.3-.83 0l-3.44 5c-.2.37.05.8.54.8z"
                      fill="currentColor"
                    ></path>
                  </svg>